<svg xmlns="http://www.w3.org/2000/svg" xmlns:xlink="http://www.w3.org/1999/xlink" viewBox="0,0,256,256" width="48px" height="48px" fill-rule="nonzero"><g fill="#ef8d00" fill-rule="nonzero" stroke="none" stroke-width="1" stroke-linecap="butt" stroke-linejoin="miter" stroke-miterlimit="10" stroke-dasharray="" stroke-dashoffset="0" font-family="none" font-weight="none" font-size="none" text-anchor="none" style="mix-blend-mode: normal"><g transform="scale(5.33333,5.33333)"><path d="M44,24c0,-0.129 -0.017,-0.253 -0.019,-0.381c-0.01,-0.414 -0.028,-0.827 -0.062,-1.234c-0.028,-0.348 -0.068,-0.691 -0.114,-1.033c-0.023,-0.168 -0.049,-0.335 -0.077,-0.502c-0.454,-2.859 -1.497,-5.519 -3.027,-7.838c1.104,-0.892 1.67,-2.305 1.67,-3.864c0,-2.94 -2.368,-5.146 -5.336,-5.146c-1.785,0 -3.315,0.771 -4.234,2.061c-2.659,-1.309 -5.638,-2.063 -8.801,-2.063c-3.161,0 -6.14,0.753 -8.797,2.059c-0.926,-1.293 -2.447,-2.059 -4.237,-2.059c-2.901,-0.031 -5.284,2.267 -5.336,5.146c0.024,1.457 0.628,2.841 1.671,3.861c-1.536,2.329 -2.582,5 -3.033,7.872c-0.033,0.201 -0.065,0.401 -0.092,0.603c-0.035,0.276 -0.067,0.552 -0.09,0.832c-0.042,0.473 -0.066,0.949 -0.072,1.426c-0.002,0.088 -0.014,0.172 -0.014,0.26c0,0.021 0.003,0.041 0.003,0.062c0,0.027 -0.003,0.055 -0.003,0.082c0.003,10.084 7.584,18.392 17.396,19.667c0.854,0.112 1.719,0.189 2.604,0.189v0c0.04,0 0.078,-0.006 0.117,-0.006c0.792,-0.005 1.569,-0.066 2.336,-0.16c9.884,-1.207 17.541,-9.55 17.547,-19.684c0,-0.029 -0.003,-0.058 -0.003,-0.087c0,-0.021 0.003,-0.042 0.003,-0.063zM24,42c-9.925,0 -18,-8.075 -18,-18c0,-9.925 8.075,-18 18,-18c9.925,0 18,8.075 18,18c0,9.925 -8.075,18 -18,18z"></path><path d="M23.997,33.25c2.73,0 5.003,-1.912 5.003,-4.262h-10c0,2.351 2.118,4.262 5.003,4.262z"></path><path d="M24.034,27.536c0.302,0.145 3.415,-1.03 3.415,-2.506c0,-0.885 -2.52,-1.03 -3.415,-1.03c-0.896,0 -3.404,0.145 -3.404,1.03c-0.146,1.476 3.113,2.651 3.41,2.506z"></path><path d="M35.545,15.13c-1.775,-1.219 -5.627,-1.831 -7.111,0.156c0,0 -1.926,2.137 0,4.273c1.926,2.137 3.259,4.285 3.707,5.966c0.448,1.831 1.181,2.443 2.52,2.443c1.338,0 3.998,-2.137 4.44,-5.654c0.228,-2.896 -1.148,-5.676 -3.556,-7.184zM32,20c-0.573,0 -1,-0.43 -1,-0.995c0,-0.565 0.432,-1 1,-1c0.568,0 1,0.43 1,1c0,0.57 -0.432,0.995 -1,0.995z"></path><path d="M12.444,15.13c-1.78,1.219 -3.852,3.667 -3.555,7.184c0.297,3.517 2.967,5.654 4.446,5.654c1.333,0 2.072,-0.762 2.52,-2.443c0.448,-1.836 1.926,-3.823 3.701,-5.96c1.926,-2.293 0,-4.279 0,-4.279c-1.479,-1.987 -5.332,-1.375 -7.112,-0.156zM16.008,20v-0.005c-0.575,0 -1.008,-0.426 -1.008,-0.992c0,-0.566 0.434,-1.003 1.008,-1.003c0.574,0 1.003,0.431 1.003,1.003c0,0.572 -0.434,0.997 -1.003,0.997z"></path></g></g></svg>